<svg height="456pt" viewBox="0 -17 456 456" width="456pt" xmlns="http://www.w3.org/2000/svg"><path d="m446 0v307.328125h-436v-307.328125zm-139.410156 153.660156c-.003906-43.402344-35.195313-78.582031-78.597656-78.582031-43.402344.003906-78.585938 35.191406-78.582032 78.59375 0 43.402344 35.1875 78.589844 78.589844 78.589844 43.355469-.128907 78.46875-35.246094 78.589844-78.601563zm0 0" fill="#00acea"/><path d="m228 75.070312c43.414062-.003906 78.609375 35.183594 78.609375 78.597657.003906 43.410156-35.191406 78.605469-78.601563 78.601562-43.414062 0-78.601562-35.199219-78.597656-78.609375.125-43.351562 35.238282-78.464844 78.589844-78.589844zm-21.769531 114.039063 59.839843-35.449219-59.839843-35.441406zm0 0" fill="#00efd1"/><path d="m266.070312 153.660156-59.839843 35.449219v-70.890625zm0 0" fill="#00efd1"/><g fill="#d4e1f4"><path d="m206.230469 199.109375c-5.523438 0-10-4.476563-10-10v-70.890625c0-3.59375 1.929687-6.910156 5.050781-8.6875s6.957031-1.742188 10.046875.089844l59.84375 35.4375c3.039063 1.800781 4.902344 5.074218 4.902344 8.605468s-1.863281 6.800782-4.902344 8.601563l-59.84375 35.453125c-1.542969.914062-3.304687 1.394531-5.097656 1.390625zm10-63.34375v35.796875l30.21875-17.898438zm0 0"/><path d="m107.761719 400.140625h-97.761719c-5.523438 0-10-4.476563-10-10s4.476562-10 10-10h97.761719c5.519531 0 10 4.476563 10 10s-4.480469 10-10 10zm0 0"/><path d="m446 400.140625h-289.039062c-5.523438 0-10-4.476563-10-10s4.476562-10 10-10h289.039062c5.523438 0 10 4.476563 10 10s-4.476562 10-10 10zm0 0"/></g><path d="m112.320312 349.941406h40.078126v72.359375h-40.078126zm0 0" fill="#fedb41"/></svg>